<?xml version="1.0" encoding="utf-8"?>
<!-- Generator: Adobe Illustrator 17.1.0, SVG Export Plug-In . SVG Version: 6.00 Build 0)  -->
<!DOCTYPE svg PUBLIC "-//W3C//DTD SVG 1.1//EN" "http://www.w3.org/Graphics/SVG/1.1/DTD/svg11.dtd">
<svg version="1.1" id="crop" xmlns="http://www.w3.org/2000/svg" xmlns:xlink="http://www.w3.org/1999/xlink" x="0px" y="0px"
	 viewBox="0 0 1009.9824 1009.9527" enable-background="new 0 0 1009.9824 1009.9527" xml:space="preserve">
<g id="crop-label">
	<path fill="#3FD7D7" d="M505,0C226.0957,0,0,226.1314,0,504.9878c0,278.9043,226.0957,504.9649,505,504.9649
		c278.8505,0,504.9824-226.0606,504.9824-504.9649C1009.9824,226.1314,783.8505,0,505,0z"/>
</g>
<g id="crop-crop">
	<g>
		<path id="crop_10_" fill="#FFFFFF" d="M629.8222,579.857h49.9131V380.1597c0-27.5786-22.3349-49.9365-49.9131-49.9365H430.1074
			v49.9365h199.7148V579.857z M380.1831,629.7925v-399.418h-49.9244v99.8487h-99.8486v49.9365h99.8486v249.6328
			c0,27.5791,22.3462,49.9131,49.9244,49.9131h249.6391v99.8486h49.9131v-99.8486h99.8486v-49.9131H380.1831z"/>
	</g>
</g>
</svg>
